<svg xmlns="http://www.w3.org/2000/svg" xmlns:xlink="http://www.w3.org/1999/xlink" xmlns:s="https://github.com/nturley/netlistsvg" width="459" height="477">
  <style>svg {
    stroke:#000;
    fill:none;
  }
  text {
    fill:#000;
    stroke:none;
    font-size:10px;
    font-weight: bold;
    font-family: "Courier New", monospace;
  }
  .nodelabel {
    text-anchor: middle;
  }
  .inputPortLabel {
    text-anchor: end;
  }
  .splitjoinBody {
    fill:#000;
  }</style>
  <g s:type="and" transform="translate(417,96)" s:width="30" s:height="25" id="cell_$and$tt_um_advanced_counter.v:102$7">
    <s:alias val="$and"/>
    <s:alias val="$logic_and"/>
    <s:alias val="$_AND_"/>
    <path d="M0,0 L0,25 L15,25 A15 12.5 0 0 0 15,0 Z" class="cell_$and$tt_um_advanced_counter.v:102$7"/>
    <g s:x="0" s:y="5" s:pid="A"/>
    <g s:x="0" s:y="20" s:pid="B"/>
    <g s:x="30" s:y="12.5" s:pid="Y"/>
  </g>
  <g s:type="and" transform="translate(417,156)" s:width="30" s:height="25" id="cell_$and$tt_um_advanced_counter.v:102$8">
    <s:alias val="$and"/>
    <s:alias val="$logic_and"/>
    <s:alias val="$_AND_"/>
    <path d="M0,0 L0,25 L15,25 A15 12.5 0 0 0 15,0 Z" class="cell_$and$tt_um_advanced_counter.v:102$8"/>
    <g s:x="0" s:y="5" s:pid="A"/>
    <g s:x="0" s:y="20" s:pid="B"/>
    <g s:x="30" s:y="12.5" s:pid="Y"/>
  </g>
  <g s:type="not" transform="translate(124,193)" s:width="30" s:height="20" id="cell_$not$tt_um_advanced_counter.v:145$10">
    <s:alias val="$_NOT_"/>
    <s:alias val="$not"/>
    <s:alias val="$logic_not"/>
    <path d="M0,0 L0,20 L20,10 Z" class="cell_$not$tt_um_advanced_counter.v:145$10"/>
    <circle cx="23" cy="10" r="3" class="cell_$not$tt_um_advanced_counter.v:145$10"/>
    <g s:x="0" s:y="10" s:pid="A"/>
    <g s:x="25" s:y="10" s:pid="Y"/>
  </g>
  <g s:type="not" transform="translate(124,248)" s:width="30" s:height="20" id="cell_$not$tt_um_advanced_counter.v:145$9">
    <s:alias val="$_NOT_"/>
    <s:alias val="$not"/>
    <s:alias val="$logic_not"/>
    <path d="M0,0 L0,20 L20,10 Z" class="cell_$not$tt_um_advanced_counter.v:145$9"/>
    <circle cx="23" cy="10" r="3" class="cell_$not$tt_um_advanced_counter.v:145$9"/>
    <g s:x="0" s:y="10" s:pid="A"/>
    <g s:x="25" s:y="10" s:pid="Y"/>
  </g>
  <g s:type="not" transform="translate(227,106)" s:width="30" s:height="20" id="cell_$not$tt_um_advanced_counter.v:149$1">
    <s:alias val="$_NOT_"/>
    <s:alias val="$not"/>
    <s:alias val="$logic_not"/>
    <path d="M0,0 L0,20 L20,10 Z" class="cell_$not$tt_um_advanced_counter.v:149$1"/>
    <circle cx="23" cy="10" r="3" class="cell_$not$tt_um_advanced_counter.v:149$1"/>
    <g s:x="0" s:y="10" s:pid="A"/>
    <g s:x="25" s:y="10" s:pid="Y"/>
  </g>
  <g s:type="not" transform="translate(135,280)" s:width="30" s:height="20" id="cell_$not$tt_um_advanced_counter.v:169$2">
    <s:alias val="$_NOT_"/>
    <s:alias val="$not"/>
    <s:alias val="$logic_not"/>
    <path d="M0,0 L0,20 L20,10 Z" class="cell_$not$tt_um_advanced_counter.v:169$2"/>
    <circle cx="23" cy="10" r="3" class="cell_$not$tt_um_advanced_counter.v:169$2"/>
    <g s:x="0" s:y="10" s:pid="A"/>
    <g s:x="25" s:y="10" s:pid="Y"/>
  </g>
  <g s:type="not" transform="translate(135,335)" s:width="30" s:height="20" id="cell_$not$tt_um_advanced_counter.v:170$3">
    <s:alias val="$_NOT_"/>
    <s:alias val="$not"/>
    <s:alias val="$logic_not"/>
    <path d="M0,0 L0,20 L20,10 Z" class="cell_$not$tt_um_advanced_counter.v:170$3"/>
    <circle cx="23" cy="10" r="3" class="cell_$not$tt_um_advanced_counter.v:170$3"/>
    <g s:x="0" s:y="10" s:pid="A"/>
    <g s:x="25" s:y="10" s:pid="Y"/>
  </g>
  <g s:type="not" transform="translate(135,390)" s:width="30" s:height="20" id="cell_$not$tt_um_advanced_counter.v:171$4">
    <s:alias val="$_NOT_"/>
    <s:alias val="$not"/>
    <s:alias val="$logic_not"/>
    <path d="M0,0 L0,20 L20,10 Z" class="cell_$not$tt_um_advanced_counter.v:171$4"/>
    <circle cx="23" cy="10" r="3" class="cell_$not$tt_um_advanced_counter.v:171$4"/>
    <g s:x="0" s:y="10" s:pid="A"/>
    <g s:x="25" s:y="10" s:pid="Y"/>
  </g>
  <g s:type="not" transform="translate(135,445)" s:width="30" s:height="20" id="cell_$not$tt_um_advanced_counter.v:172$5">
    <s:alias val="$_NOT_"/>
    <s:alias val="$not"/>
    <s:alias val="$logic_not"/>
    <path d="M0,0 L0,20 L20,10 Z" class="cell_$not$tt_um_advanced_counter.v:172$5"/>
    <circle cx="23" cy="10" r="3" class="cell_$not$tt_um_advanced_counter.v:172$5"/>
    <g s:x="0" s:y="10" s:pid="A"/>
    <g s:x="25" s:y="10" s:pid="Y"/>
  </g>
  <g s:type="not" transform="translate(201,244)" s:width="30" s:height="20" id="cell_$not$tt_um_advanced_counter.v:175$6">
    <s:alias val="$_NOT_"/>
    <s:alias val="$not"/>
    <s:alias val="$logic_not"/>
    <path d="M0,0 L0,20 L20,10 Z" class="cell_$not$tt_um_advanced_counter.v:175$6"/>
    <circle cx="23" cy="10" r="3" class="cell_$not$tt_um_advanced_counter.v:175$6"/>
    <g s:x="0" s:y="10" s:pid="A"/>
    <g s:x="25" s:y="10" s:pid="Y"/>
  </g>
  <g s:type="generic" transform="translate(162,64)" s:width="30" s:height="40" id="cell_genblk1[0].digitcounter">
    <text x="15" y="-4" class="nodelabel cell_genblk1[0].digitcounter" s:attribute="ref">counter</text>
    <rect width="30" height="0" s:generic="body" class="cell_genblk1[0].digitcounter"/>
  </g>
  <g s:type="generic" transform="translate(12,106)" s:width="30" s:height="40" id="cell_genblk1[1].digitcounter">
    <text x="15" y="-4" class="nodelabel cell_genblk1[1].digitcounter" s:attribute="ref">counter</text>
    <rect width="30" height="0" s:generic="body" class="cell_genblk1[1].digitcounter"/>
  </g>
  <g s:type="generic" transform="translate(264,22)" s:width="30" s:height="40" id="cell_mySynchronizer">
    <text x="15" y="-4" class="nodelabel cell_mySynchronizer" s:attribute="ref">synchronizer</text>
    <rect width="30" height="0" s:generic="body" class="cell_mySynchronizer"/>
  </g>
  <g s:type="generic" transform="translate(12,22)" s:width="30" s:height="40" id="cell_mydecodshift">
    <text x="15" y="-4" class="nodelabel cell_mydecodshift" s:attribute="ref">decodeshift</text>
    <rect width="30" height="0" s:generic="body" class="cell_mydecodshift"/>
  </g>
  <g s:type="generic" transform="translate(12,64)" s:width="30" s:height="40" id="cell_myinput_trigger">
    <text x="15" y="-4" class="nodelabel cell_myinput_trigger" s:attribute="ref">input_trigger</text>
    <rect width="30" height="0" s:generic="body" class="cell_myinput_trigger"/>
  </g>
  <g s:type="generic" transform="translate(96,22)" s:width="30" s:height="40" id="cell_mymodeselect">
    <text x="15" y="-4" class="nodelabel cell_mymodeselect" s:attribute="ref">modeselect</text>
    <rect width="30" height="0" s:generic="body" class="cell_mymodeselect"/>
  </g>
  <g s:type="inputExt" transform="translate(12,238)" s:width="30" s:height="20" id="cell_ui_in">
    <text x="15" y="-4" class="nodelabel cell_ui_in" s:attribute="ref">ui_in</text>
    <s:alias val="$_inputExt_"/>
    <path d="M0,0 L0,20 L15,20 L30,10 L15,0 Z" class="cell_ui_in"/>
    <g s:x="28" s:y="10" s:pid="Y"/>
  </g>
  <g s:type="outputExt" transform="translate(114,64)" s:width="30" s:height="20" id="cell_uo_out">
    <text x="15" y="-4" class="nodelabel cell_uo_out" s:attribute="ref">uo_out</text>
    <s:alias val="$_outputExt_"/>
    <path d="M30,0 L30,20 L15,20 L0,10 L15,0 Z" class="cell_uo_out"/>
    <g s:x="0" s:y="10" s:pid="A"/>
  </g>
  <g s:type="inputExt" transform="translate(12,395)" s:width="30" s:height="20" id="cell_uio_in">
    <text x="15" y="-4" class="nodelabel cell_uio_in" s:attribute="ref">uio_in</text>
    <s:alias val="$_inputExt_"/>
    <path d="M0,0 L0,20 L15,20 L30,10 L15,0 Z" class="cell_uio_in"/>
    <g s:x="28" s:y="10" s:pid="Y"/>
  </g>
  <g s:type="outputExt" transform="translate(326,213)" s:width="30" s:height="20" id="cell_uio_out">
    <text x="15" y="-4" class="nodelabel cell_uio_out" s:attribute="ref">uio_out</text>
    <s:alias val="$_outputExt_"/>
    <path d="M30,0 L30,20 L15,20 L0,10 L15,0 Z" class="cell_uio_out"/>
    <g s:x="0" s:y="10" s:pid="A"/>
  </g>
  <g s:type="outputExt" transform="translate(334,106)" s:width="30" s:height="20" id="cell_uio_oe">
    <text x="15" y="-4" class="nodelabel cell_uio_oe" s:attribute="ref">uio_oe</text>
    <s:alias val="$_outputExt_"/>
    <path d="M30,0 L30,20 L15,20 L0,10 L15,0 Z" class="cell_uio_oe"/>
    <g s:x="0" s:y="10" s:pid="A"/>
  </g>
  <g s:type="inputExt" transform="translate(180,22)" s:width="30" s:height="20" id="cell_ena">
    <text x="15" y="-4" class="nodelabel cell_ena" s:attribute="ref">ena</text>
    <s:alias val="$_inputExt_"/>
    <path d="M0,0 L0,20 L15,20 L30,10 L15,0 Z" class="cell_ena"/>
    <g s:x="28" s:y="10" s:pid="Y"/>
  </g>
  <g s:type="inputExt" transform="translate(222,22)" s:width="30" s:height="20" id="cell_clk">
    <text x="15" y="-4" class="nodelabel cell_clk" s:attribute="ref">clk</text>
    <s:alias val="$_inputExt_"/>
    <path d="M0,0 L0,20 L15,20 L30,10 L15,0 Z" class="cell_clk"/>
    <g s:x="28" s:y="10" s:pid="Y"/>
  </g>
  <g s:type="inputExt" transform="translate(162,106)" s:width="30" s:height="20" id="cell_rst_n">
    <text x="15" y="-4" class="nodelabel cell_rst_n" s:attribute="ref">rst_n</text>
    <s:alias val="$_inputExt_"/>
    <path d="M0,0 L0,20 L15,20 L30,10 L15,0 Z" class="cell_rst_n"/>
    <g s:x="28" s:y="10" s:pid="Y"/>
  </g>
  <g s:type="constant" transform="translate(201,203)" s:width="30" s:height="20" id="cell_000000">
    <text x="15" y="-4" class="nodelabel cell_000000" s:attribute="ref">0x0</text>
    <s:alias val="$_constant_"/>
    <rect width="30" height="20" class="cell_000000"/>
    <g s:x="30" s:y="10" s:pid="Y"/>
  </g>
  <g s:type="constant" transform="translate(269,106)" s:width="30" s:height="20" id="cell_00001111">
    <text x="15" y="-4" class="nodelabel cell_00001111" s:attribute="ref">0xf</text>
    <s:alias val="$_constant_"/>
    <rect width="30" height="20" class="cell_00001111"/>
    <g s:x="30" s:y="10" s:pid="Y"/>
  </g>
  <g s:type="join" transform="translate(285,202.5)" s:width="4" s:height="40" id="cell_$join$,37,38,39,40,41,42,20,21,">
    <rect width="5" height="60" class="splitjoinBody" s:generic="body"/>
    <s:alias val="$_join_"/>
    <g s:x="5" s:y="20" s:pid="out"/>
    <g transform="translate(0,10)" s:x="0" s:y="10" s:pid="in0">
      <text x="-3" y="-4" class="inputPortLabel">0:5</text>
    </g>
    <g transform="translate(0,30)" s:x="0" s:y="10" s:pid="in0">
      <text x="-3" y="-4" class="inputPortLabel">6</text>
    </g>
    <g transform="translate(0,50)" s:x="0" s:y="10" s:pid="in0">
      <text x="-3" y="-4" class="inputPortLabel">7</text>
    </g>
  </g>
  <g s:type="split" transform="translate(77,227.5)" s:width="5" s:height="40" id="cell_$split$,2,3,4,5,6,7,8,9,">
    <rect width="5" height="40" class="splitjoinBody" s:generic="body"/>
    <s:alias val="$_split_"/>
    <g s:x="0" s:y="20" s:pid="in"/>
    <g transform="translate(4,10)" s:x="4" s:y="10" s:pid="out0">
      <text x="5" y="-4">1</text>
    </g>
    <g transform="translate(4,30)" s:x="4" s:y="10" s:pid="out0">
      <text x="5" y="-4">0</text>
    </g>
  </g>
  <g s:type="split" transform="translate(83,384.5)" s:width="5" s:height="40" id="cell_$split$,12,13,14,15,16,17,18,19,">
    <rect width="5" height="80" class="splitjoinBody" s:generic="body"/>
    <s:alias val="$_split_"/>
    <g s:x="0" s:y="20" s:pid="in"/>
    <g transform="translate(4,10)" s:x="4" s:y="10" s:pid="out0">
      <text x="5" y="-4">0</text>
    </g>
    <g transform="translate(4,30)" s:x="4" s:y="10" s:pid="out0">
      <text x="5" y="-4">1</text>
    </g>
    <g transform="translate(4,50)" s:x="4" s:y="10" s:pid="out0">
      <text x="5" y="-4">2</text>
    </g>
    <g transform="translate(4,70)" s:x="4" s:y="10" s:pid="out0">
      <text x="5" y="-4">3</text>
    </g>
  </g>
  <line x1="392" x2="417" y1="116" y2="116" class="net_26"/>
  <line x1="392" x2="392" y1="116" y2="176" class="net_26"/>
  <line x1="392" x2="417" y1="176" y2="176" class="net_26"/>
  <line x1="82" x2="99" y1="238" y2="238" class="net_3"/>
  <line x1="99" x2="99" y1="238" y2="203" class="net_3"/>
  <line x1="99" x2="124" y1="203" y2="203" class="net_3"/>
  <line x1="82" x2="124" y1="258" y2="258" class="net_2"/>
  <line x1="190" x2="227" y1="116" y2="116" class="net_24"/>
  <line x1="88" x2="105" y1="395" y2="395" class="net_12"/>
  <line x1="105" x2="105" y1="395" y2="290" class="net_12"/>
  <line x1="105" x2="135" y1="290" y2="290" class="net_12"/>
  <line x1="88" x2="115" y1="415" y2="415" class="net_13"/>
  <line x1="115" x2="115" y1="415" y2="345" class="net_13"/>
  <line x1="115" x2="135" y1="345" y2="345" class="net_13"/>
  <line x1="88" x2="125" y1="435" y2="435" class="net_14"/>
  <line x1="125" x2="125" y1="435" y2="400" class="net_14"/>
  <line x1="125" x2="135" y1="400" y2="400" class="net_14"/>
  <line x1="88" x2="135" y1="455" y2="455" class="net_15"/>
  <line x1="176" x2="176" y1="233" y2="254" class="net_20"/>
  <line x1="176" x2="201" y1="254" y2="254" class="net_20"/>
  <line x1="176" x2="285" y1="233" y2="233" class="net_20"/>
  <line x1="291" x2="326" y1="223" y2="223" class="net_37,38,39,40,41,42,20,21"/>
  <line x1="299" x2="334" y1="116" y2="116" class="net_49,50,51,52,53,54,55,56"/>
  <line x1="231" x2="285" y1="213" y2="213" class="net_37,38,39,40,41,42"/>
  <line x1="226" x2="241" y1="254" y2="254" class="net_21"/>
  <line x1="241" x2="241" y1="254" y2="253" class="net_21"/>
  <line x1="241" x2="285" y1="253" y2="253" class="net_21"/>
  <line x1="40" x2="77" y1="248" y2="248" class="net_2,3,4,5,6,7,8,9"/>
  <line x1="40" x2="83" y1="405" y2="405" class="net_12,13,14,15,16,17,18,19"/>
</svg>
